<?xml version="1.0" encoding="utf-8"?>
<!-- Generated by Mocodo 4.3.2 -->
<svg width="515" height="599" viewBox="0 0 515 599" xmlns="http://www.w3.org/2000/svg">
<rect x="0" y="0" width="515" height="599" fill="#f7f7f7" stroke="none" stroke-width="0"/>

<!-- Association APPARTIENT -->
<g>
	<line x1="64" y1="262" x2="64" y2="85" stroke="#9970ab" stroke-width="2"/>
	<line x1="194" y1="85" x2="64" y2="85" stroke="#9970ab" stroke-width="2"/>
	<g>
		<path d="M96 60 a14 14 90 0 1 14 14 V85 h-92 V74 a14 14 90 0 1 14 -14" fill="#c2a5cf" stroke="#c2a5cf" stroke-width="0"/>
		<path d="M110 85 v11 a14 14 90 0 1 -14 14 H32 a14 14 90 0 1 -14 -14 V85 H92" fill="#e7d4e8" stroke="#e7d4e8" stroke-width="0"/>
		<rect x="18" y="60" width="92" height="50" fill="none" rx="14" stroke="#9970ab" stroke-width="2"/>
		<line x1="18" y1="85" x2="110" y2="85" stroke="#9970ab" stroke-width="1"/>
		<text x="26" y="77.75" fill="#000000" font-family="Verdana" font-size="12">APPARTIENT</text>
	</g>
	<text x="69" y="169" fill="#1b7837" font-family="Verdana" font-size="12">1,N</text>
	<text x="116" y="102" fill="#1b7837" font-family="Verdana" font-size="12">1,1</text>
</g>

<!-- Association GERE -->
<g>
	<line x1="328" y1="85" x2="454" y2="85" stroke="#9970ab" stroke-width="2"/>
	<line x1="454" y1="262" x2="454" y2="85" stroke="#9970ab" stroke-width="2"/>
	<g>
		<path d="M464 60 a14 14 90 0 1 14 14 V85 h-48 V74 a14 14 90 0 1 14 -14" fill="#c2a5cf" stroke="#c2a5cf" stroke-width="0"/>
		<path d="M478 85 v11 a14 14 90 0 1 -14 14 H444 a14 14 90 0 1 -14 -14 V85 H48" fill="#e7d4e8" stroke="#e7d4e8" stroke-width="0"/>
		<rect x="430" y="60" width="48" height="50" fill="none" rx="14" stroke="#9970ab" stroke-width="2"/>
		<line x1="430" y1="85" x2="478" y2="85" stroke="#9970ab" stroke-width="1"/>
		<text x="437" y="77.75" fill="#000000" font-family="Verdana" font-size="12">GÈRE</text>
	</g>
	<text x="383" y="102" fill="#1b7837" font-family="Verdana" font-size="12">0,1</text>
	<text x="459" y="178" fill="#1b7837" font-family="Verdana" font-size="12">0,N</text>
</g>

<!-- Association JUSTIFIE -->
<g>
	<line x1="328" y1="422" x2="194" y2="262" stroke="#9970ab" stroke-width="2"/>
	<line x1="194" y1="85" x2="194" y2="262" stroke="#9970ab" stroke-width="2"/>
	<g>
		<path d="M215 237 a14 14 90 0 1 14 14 V262 h-70 V251 a14 14 90 0 1 14 -14" fill="#c2a5cf" stroke="#c2a5cf" stroke-width="0"/>
		<path d="M229 262 v11 a14 14 90 0 1 -14 14 H173 a14 14 90 0 1 -14 -14 V262 H70" fill="#e7d4e8" stroke="#e7d4e8" stroke-width="0"/>
		<rect x="159" y="237" width="70" height="50" fill="none" rx="14" stroke="#9970ab" stroke-width="2"/>
		<line x1="159" y1="262" x2="229" y2="262" stroke="#9970ab" stroke-width="1"/>
		<text x="167" y="254.75" fill="#000000" font-family="Verdana" font-size="12">JUSTIFIE</text>
	</g>
	<text x="277.4" y="355" fill="#1b7837" font-family="Verdana" font-size="12">0,N</text>
	<text x="199" y="153" fill="#1b7837" font-family="Verdana" font-size="12">0,N</text>
</g>

<!-- Association COUVRE -->
<g>
	<line x1="328" y1="422" x2="328" y2="262" stroke="#9970ab" stroke-width="2"/>
	<line x1="328" y1="85" x2="328" y2="262" stroke="#9970ab" stroke-width="2"/>
	<line x1="454" y1="262" x2="328" y2="262" stroke="#9970ab" stroke-width="2"/>
	<g>
		<path d="M356 237 a14 14 90 0 1 14 14 V262 h-84 V251 a14 14 90 0 1 14 -14" fill="#c2a5cf" stroke="#c2a5cf" stroke-width="0"/>
		<path d="M370 262 v11 a14 14 90 0 1 -14 14 H300 a14 14 90 0 1 -14 -14 V262 H84" fill="#e7d4e8" stroke="#e7d4e8" stroke-width="0"/>
		<rect x="286" y="237" width="84" height="50" fill="none" rx="14" stroke="#9970ab" stroke-width="2"/>
		<line x1="286" y1="262" x2="370" y2="262" stroke="#9970ab" stroke-width="1"/>
		<text x="302" y="254.75" fill="#000000" font-family="Verdana" font-size="12">COUVRE</text>
		<text x="293" y="279.8" fill="#000000" font-family="Verdana" font-size="12">date_debut</text>
	</g>
	<text x="333" y="355" fill="#1b7837" font-family="Verdana" font-size="12">1,1</text>
	<text x="333" y="178" fill="#1b7837" font-family="Verdana" font-size="12">1,1</text>
	<text x="375" y="279" fill="#1b7837" font-family="Verdana" font-size="12">1,N</text>
</g>

<!-- Association IMPACTE -->
<g>
	<line x1="64" y1="262" x2="64" y2="422" stroke="#9970ab" stroke-width="2"/>
	<line x1="64" y1="531" x2="64" y2="422" stroke="#9970ab" stroke-width="2"/>
	<g>
		<path d="M99 397 a14 14 90 0 1 14 14 V422 h-98 V411 a14 14 90 0 1 14 -14" fill="#c2a5cf" stroke="#c2a5cf" stroke-width="0"/>
		<path d="M113 422 v11 a14 14 90 0 1 -14 14 H29 a14 14 90 0 1 -14 -14 V422 H98" fill="#e7d4e8" stroke="#e7d4e8" stroke-width="0"/>
		<rect x="15" y="397" width="98" height="50" fill="none" rx="14" stroke="#9970ab" stroke-width="2"/>
		<line x1="15" y1="422" x2="113" y2="422" stroke="#9970ab" stroke-width="1"/>
		<text x="37" y="414.75" fill="#000000" font-family="Verdana" font-size="12">IMPACTE</text>
		<text x="22" y="439.8" fill="#000000" font-family="Verdana" font-size="12">degat_estime</text>
	</g>
	<text x="37" y="364" fill="#1b7837" font-family="Verdana" font-size="12">1,N</text>
	<text x="69" y="464" fill="#1b7837" font-family="Verdana" font-size="12">1,1</text>
</g>

<!-- Association CONTIENT -->
<g>
	<line x1="194" y1="531" x2="194" y2="422" stroke="#9970ab" stroke-width="2"/>
	<line x1="64" y1="262" x2="194" y2="422" stroke="#9970ab" stroke-width="2"/>
	<g>
		<path d="M219 397 a14 14 90 0 1 14 14 V422 h-78 V411 a14 14 90 0 1 14 -14" fill="#c2a5cf" stroke="#c2a5cf" stroke-width="0"/>
		<path d="M233 422 v11 a14 14 90 0 1 -14 14 H169 a14 14 90 0 1 -14 -14 V422 H78" fill="#e7d4e8" stroke="#e7d4e8" stroke-width="0"/>
		<rect x="155" y="397" width="78" height="50" fill="none" rx="14" stroke="#9970ab" stroke-width="2"/>
		<line x1="155" y1="422" x2="233" y2="422" stroke="#9970ab" stroke-width="1"/>
		<text x="162" y="414.75" fill="#000000" font-family="Verdana" font-size="12">CONTIENT</text>
	</g>
	<text x="199" y="464" fill="#1b7837" font-family="Verdana" font-size="12">1,1</text>
	<text x="121" y="324.04" fill="#1b7837" font-family="Verdana" font-size="12">0,N</text>
</g>

<!-- Association POSSEDE -->
<g>
	<line x1="454" y1="262" x2="454" y2="422" stroke="#9970ab" stroke-width="2"/>
	<line x1="328" y1="422" x2="454" y2="422" stroke="#9970ab" stroke-width="2"/>
	<g>
		<path d="M477 397 a14 14 90 0 1 14 14 V422 h-74 V411 a14 14 90 0 1 14 -14" fill="#c2a5cf" stroke="#c2a5cf" stroke-width="0"/>
		<path d="M491 422 v11 a14 14 90 0 1 -14 14 H431 a14 14 90 0 1 -14 -14 V422 H74" fill="#e7d4e8" stroke="#e7d4e8" stroke-width="0"/>
		<rect x="417" y="397" width="74" height="50" fill="none" rx="14" stroke="#9970ab" stroke-width="2"/>
		<line x1="417" y1="422" x2="491" y2="422" stroke="#9970ab" stroke-width="1"/>
		<text x="425" y="414.75" fill="#000000" font-family="Verdana" font-size="12">POSSEDE</text>
	</g>
	<text x="459" y="355" fill="#1b7837" font-family="Verdana" font-size="12">1,N</text>
	<text x="384" y="439" fill="#1b7837" font-family="Verdana" font-size="12">0,N</text>
</g>

<!-- Association COMPOSE -->
<g>
	<line x1="328" y1="422" x2="328" y2="531" stroke="#9970ab" stroke-width="2"/>
	<line x1="194" y1="531" x2="328" y2="531" stroke="#9970ab" stroke-width="2"/>
	<g>
		<path d="M352 506 a14 14 90 0 1 14 14 V531 h-76 V520 a14 14 90 0 1 14 -14" fill="#c2a5cf" stroke="#c2a5cf" stroke-width="0"/>
		<path d="M366 531 v11 a14 14 90 0 1 -14 14 H304 a14 14 90 0 1 -14 -14 V531 H76" fill="#e7d4e8" stroke="#e7d4e8" stroke-width="0"/>
		<rect x="290" y="506" width="76" height="50" fill="none" rx="14" stroke="#9970ab" stroke-width="2"/>
		<line x1="290" y1="531" x2="366" y2="531" stroke="#9970ab" stroke-width="1"/>
		<text x="298" y="523.75" fill="#000000" font-family="Verdana" font-size="12">COMPOSE</text>
	</g>
	<text x="333" y="498" fill="#1b7837" font-family="Verdana" font-size="12">1,1</text>
	<text x="238" y="548" fill="#1b7837" font-family="Verdana" font-size="12">0,N</text>
</g>

<!-- Entity JUSTIFICATIF -->
<g>
	<g>
		<rect x="142" y="34" width="104" height="25" fill="#a6dba0" stroke="none" stroke-width="0" opacity="1"/>
		<rect x="142" y="59" width="104" height="77" fill="#d9f0d3" stroke="none" stroke-width="0" opacity="1"/>
		<rect x="142" y="34" width="104" height="102" fill="none" stroke="#5aae61" stroke-width="2" opacity="1"/>
		<line x1="142" y1="59" x2="246" y2="59" stroke="#5aae61" stroke-width="1"/>
	</g>
	<text x="152" y="51.75" fill="#000000" font-family="Verdana" font-size="12">JUSTIFICATIF</text>
	<text x="147" y="76.8" fill="#000000" font-family="Verdana" font-size="12">id_justificatif</text>
	<line x1="147" y1="79" x2="226" y2="79" stroke="#000000" stroke-width="1"/>
	<text x="147" y="93.8" fill="#000000" font-family="Verdana" font-size="12">type_justificatif</text>
	<text x="147" y="110.8" fill="#000000" font-family="Verdana" font-size="12">chemin_fichier</text>
	<text x="147" y="127.8" fill="#000000" font-family="Verdana" font-size="12">date_ajout</text>
</g>

<!-- Entity ASSUREUR -->
<g>
	<g>
		<rect x="278" y="9" width="100" height="25" fill="#a6dba0" stroke="none" stroke-width="0" opacity="1"/>
		<rect x="278" y="34" width="100" height="127" fill="#d9f0d3" stroke="none" stroke-width="0" opacity="1"/>
		<rect x="278" y="9" width="100" height="152" fill="none" stroke="#5aae61" stroke-width="2" opacity="1"/>
		<line x1="278" y1="34" x2="378" y2="34" stroke="#5aae61" stroke-width="1"/>
	</g>
	<text x="295" y="26.75" fill="#000000" font-family="Verdana" font-size="12">ASSUREUR</text>
	<text x="283" y="51.8" fill="#000000" font-family="Verdana" font-size="12">id_assureur</text>
	<line x1="283" y1="54" x2="355" y2="54" stroke="#000000" stroke-width="1"/>
	<text x="283" y="68.8" fill="#000000" font-family="Verdana" font-size="12">nom</text>
	<text x="283" y="85.8" fill="#000000" font-family="Verdana" font-size="12">prenom</text>
	<text x="283" y="102.8" fill="#000000" font-family="Verdana" font-size="12">email</text>
	<text x="283" y="119.8" fill="#000000" font-family="Verdana" font-size="12">telephone</text>
	<text x="283" y="136.8" fill="#000000" font-family="Verdana" font-size="12">mot_de_passe</text>
	<text x="283" y="153.8" fill="#000000" font-family="Verdana" font-size="12">societe</text>
</g>

<!-- Entity BIEN -->
<g>
	<g>
		<rect x="12" y="177" width="104" height="25" fill="#a6dba0" stroke="none" stroke-width="0" opacity="1"/>
		<rect x="12" y="202" width="104" height="145" fill="#d9f0d3" stroke="none" stroke-width="0" opacity="1"/>
		<rect x="12" y="177" width="104" height="170" fill="none" stroke="#5aae61" stroke-width="2" opacity="1"/>
		<line x1="12" y1="202" x2="116" y2="202" stroke="#5aae61" stroke-width="1"/>
	</g>
	<text x="49" y="194.75" fill="#000000" font-family="Verdana" font-size="12">BIEN</text>
	<text x="17" y="219.8" fill="#000000" font-family="Verdana" font-size="12">id_bien</text>
	<line x1="17" y1="222" x2="62" y2="222" stroke="#000000" stroke-width="1"/>
	<text x="17" y="236.8" fill="#000000" font-family="Verdana" font-size="12">nom_bien</text>
	<text x="17" y="253.8" fill="#000000" font-family="Verdana" font-size="12">description</text>
	<text x="17" y="270.8" fill="#000000" font-family="Verdana" font-size="12">categorie</text>
	<text x="17" y="287.8" fill="#000000" font-family="Verdana" font-size="12">date_achat</text>
	<text x="17" y="304.8" fill="#000000" font-family="Verdana" font-size="12">prix_achat</text>
	<text x="17" y="321.8" fill="#000000" font-family="Verdana" font-size="12">etat</text>
	<text x="17" y="338.8" fill="#000000" font-family="Verdana" font-size="12">valeur_actuelle</text>
</g>

<!-- Entity ASSURE -->
<g>
	<g>
		<rect x="402" y="186" width="104" height="25" fill="#a6dba0" stroke="none" stroke-width="0" opacity="1"/>
		<rect x="402" y="211" width="104" height="127" fill="#d9f0d3" stroke="none" stroke-width="0" opacity="1"/>
		<rect x="402" y="186" width="104" height="152" fill="none" stroke="#5aae61" stroke-width="2" opacity="1"/>
		<line x1="402" y1="211" x2="506" y2="211" stroke="#5aae61" stroke-width="1"/>
	</g>
	<text x="429" y="203.75" fill="#000000" font-family="Verdana" font-size="12">ASSURE</text>
	<text x="407" y="228.8" fill="#000000" font-family="Verdana" font-size="12">id_assure</text>
	<line x1="407" y1="231" x2="466" y2="231" stroke="#000000" stroke-width="1"/>
	<text x="407" y="245.8" fill="#000000" font-family="Verdana" font-size="12">nom</text>
	<text x="407" y="262.8" fill="#000000" font-family="Verdana" font-size="12">prenom</text>
	<text x="407" y="279.8" fill="#000000" font-family="Verdana" font-size="12">date_naissance</text>
	<text x="407" y="296.8" fill="#000000" font-family="Verdana" font-size="12">email</text>
	<text x="407" y="313.8" fill="#000000" font-family="Verdana" font-size="12">mdp_assure</text>
	<text x="407" y="330.8" fill="#000000" font-family="Verdana" font-size="12">telephone</text>
</g>

<!-- Entity LOGEMENT -->
<g>
	<g>
		<rect x="277" y="363" width="102" height="25" fill="#a6dba0" stroke="none" stroke-width="0" opacity="1"/>
		<rect x="277" y="388" width="102" height="93" fill="#d9f0d3" stroke="none" stroke-width="0" opacity="1"/>
		<rect x="277" y="363" width="102" height="118" fill="none" stroke="#5aae61" stroke-width="2" opacity="1"/>
		<line x1="277" y1="388" x2="379" y2="388" stroke="#5aae61" stroke-width="1"/>
	</g>
	<text x="294" y="380.75" fill="#000000" font-family="Verdana" font-size="12">LOGEMENT</text>
	<text x="282" y="405.8" fill="#000000" font-family="Verdana" font-size="12">id_logement</text>
	<line x1="282" y1="408" x2="358" y2="408" stroke="#000000" stroke-width="1"/>
	<text x="282" y="422.8" fill="#000000" font-family="Verdana" font-size="12">adresse</text>
	<text x="282" y="439.8" fill="#000000" font-family="Verdana" font-size="12">type_logement</text>
	<text x="282" y="456.8" fill="#000000" font-family="Verdana" font-size="12">surface</text>
	<text x="282" y="473.8" fill="#000000" font-family="Verdana" font-size="12">description</text>
</g>

<!-- Entity SINISTRE -->
<g>
	<g>
		<rect x="9" y="472" width="110" height="25" fill="#a6dba0" stroke="none" stroke-width="0" opacity="1"/>
		<rect x="9" y="497" width="110" height="93" fill="#d9f0d3" stroke="none" stroke-width="0" opacity="1"/>
		<rect x="9" y="472" width="110" height="118" fill="none" stroke="#5aae61" stroke-width="2" opacity="1"/>
		<line x1="9" y1="497" x2="119" y2="497" stroke="#5aae61" stroke-width="1"/>
	</g>
	<text x="34" y="489.75" fill="#000000" font-family="Verdana" font-size="12">SINISTRE</text>
	<text x="14" y="514.8" fill="#000000" font-family="Verdana" font-size="12">id_sinistre</text>
	<line x1="14" y1="517" x2="77" y2="517" stroke="#000000" stroke-width="1"/>
	<text x="14" y="531.8" fill="#000000" font-family="Verdana" font-size="12">date_sinistre</text>
	<text x="14" y="548.8" fill="#000000" font-family="Verdana" font-size="12">type_sinistre</text>
	<text x="14" y="565.8" fill="#000000" font-family="Verdana" font-size="12">description</text>
	<text x="14" y="582.8" fill="#000000" font-family="Verdana" font-size="12">numero_sinistre</text>
</g>

<!-- Entity PIECE -->
<g>
	<g>
		<rect x="155" y="472" width="78" height="25" fill="#a6dba0" stroke="none" stroke-width="0" opacity="1"/>
		<rect x="155" y="497" width="78" height="93" fill="#d9f0d3" stroke="none" stroke-width="0" opacity="1"/>
		<rect x="155" y="472" width="78" height="118" fill="none" stroke="#5aae61" stroke-width="2" opacity="1"/>
		<line x1="155" y1="497" x2="233" y2="497" stroke="#5aae61" stroke-width="1"/>
	</g>
	<text x="176" y="489.75" fill="#000000" font-family="Verdana" font-size="12">PIECE</text>
	<text x="160" y="514.8" fill="#000000" font-family="Verdana" font-size="12">id_piece</text>
	<line x1="160" y1="517" x2="211" y2="517" stroke="#000000" stroke-width="1"/>
	<text x="160" y="531.8" fill="#000000" font-family="Verdana" font-size="12">nom_piece</text>
	<text x="160" y="548.8" fill="#000000" font-family="Verdana" font-size="12">type_piece</text>
	<text x="160" y="565.8" fill="#000000" font-family="Verdana" font-size="12">surface</text>
	<text x="160" y="582.8" fill="#000000" font-family="Verdana" font-size="12">etage</text>
</g>
</svg>