<?xml version="1.0" encoding="utf-8"?>
<!-- Generated by Mocodo 4.3.2 -->
<svg width="770" height="567" viewBox="0 0 770 567" xmlns="http://www.w3.org/2000/svg">
<rect x="0" y="0" width="770" height="567" fill="#f5f5f5" stroke="none" stroke-width="0"/>

<!-- Association GERE -->
<g>
	<line x1="182" y1="85" x2="61" y2="85" stroke="#bf812d" stroke-width="2"/>
	<line x1="61" y1="254" x2="61" y2="85" stroke="#bf812d" stroke-width="2"/>
	<g>
		<path d="M71 60 a14 14 90 0 1 14 14 V85 h-48 V74 a14 14 90 0 1 14 -14" fill="#dfc27d" stroke="#dfc27d" stroke-width="0"/>
		<path d="M85 85 v11 a14 14 90 0 1 -14 14 H51 a14 14 90 0 1 -14 -14 V85 H48" fill="#f6e8c3" stroke="#f6e8c3" stroke-width="0"/>
		<rect x="37" y="60" width="48" height="50" fill="none" rx="14" stroke="#bf812d" stroke-width="2"/>
		<line x1="37" y1="85" x2="85" y2="85" stroke="#bf812d" stroke-width="1"/>
		<text x="44" y="77.75" fill="#000000" font-family="Verdana" font-size="12">GÈRE</text>
	</g>
	<text x="105" y="102" fill="#01665e" font-family="Verdana" font-size="12">1,N</text>
	<text x="66" y="178" fill="#01665e" font-family="Verdana" font-size="12">1,1</text>
</g>

<!-- Association COMPOSE -->
<g>
	<line x1="302" y1="254" x2="302" y2="85" stroke="#bf812d" stroke-width="2"/>
	<line x1="424" y1="85" x2="302" y2="85" stroke="#bf812d" stroke-width="2"/>
	<g>
		<path d="M326 60 a14 14 90 0 1 14 14 V85 h-76 V74 a14 14 90 0 1 14 -14" fill="#dfc27d" stroke="#dfc27d" stroke-width="0"/>
		<path d="M340 85 v11 a14 14 90 0 1 -14 14 H278 a14 14 90 0 1 -14 -14 V85 H76" fill="#f6e8c3" stroke="#f6e8c3" stroke-width="0"/>
		<rect x="264" y="60" width="76" height="50" fill="none" rx="14" stroke="#bf812d" stroke-width="2"/>
		<line x1="264" y1="85" x2="340" y2="85" stroke="#bf812d" stroke-width="1"/>
		<text x="272" y="77.75" fill="#000000" font-family="Verdana" font-size="12">COMPOSE</text>
	</g>
	<text x="307" y="187" fill="#01665e" font-family="Verdana" font-size="12">1,1</text>
	<text x="358" y="102" fill="#01665e" font-family="Verdana" font-size="12">1,N</text>
</g>

<!-- Association POSSEDE -->
<g>
	<line x1="61" y1="254" x2="182" y2="254" stroke="#bf812d" stroke-width="2"/>
	<line x1="302" y1="254" x2="182" y2="254" stroke="#bf812d" stroke-width="2"/>
	<g>
		<path d="M205 229 a14 14 90 0 1 14 14 V254 h-74 V243 a14 14 90 0 1 14 -14" fill="#dfc27d" stroke="#dfc27d" stroke-width="0"/>
		<path d="M219 254 v11 a14 14 90 0 1 -14 14 H159 a14 14 90 0 1 -14 -14 V254 H74" fill="#f6e8c3" stroke="#f6e8c3" stroke-width="0"/>
		<rect x="145" y="229" width="74" height="50" fill="none" rx="14" stroke="#bf812d" stroke-width="2"/>
		<line x1="145" y1="254" x2="219" y2="254" stroke="#bf812d" stroke-width="1"/>
		<text x="153" y="246.75" fill="#000000" font-family="Verdana" font-size="12">POSSEDE</text>
	</g>
	<text x="118" y="271" fill="#01665e" font-family="Verdana" font-size="12">1,N</text>
	<text x="225" y="271" fill="#01665e" font-family="Verdana" font-size="12">1,1</text>
</g>

<!-- Association CONTIENT -->
<g>
	<line x1="424" y1="85" x2="424" y2="254" stroke="#bf812d" stroke-width="2"/>
	<line x1="547" y1="254" x2="424" y2="254" stroke="#bf812d" stroke-width="2"/>
	<g>
		<path d="M449 229 a14 14 90 0 1 14 14 V254 h-78 V243 a14 14 90 0 1 14 -14" fill="#dfc27d" stroke="#dfc27d" stroke-width="0"/>
		<path d="M463 254 v11 a14 14 90 0 1 -14 14 H399 a14 14 90 0 1 -14 -14 V254 H78" fill="#f6e8c3" stroke="#f6e8c3" stroke-width="0"/>
		<rect x="385" y="229" width="78" height="50" fill="none" rx="14" stroke="#bf812d" stroke-width="2"/>
		<line x1="385" y1="254" x2="463" y2="254" stroke="#bf812d" stroke-width="1"/>
		<text x="392" y="246.75" fill="#000000" font-family="Verdana" font-size="12">CONTIENT</text>
	</g>
	<text x="429" y="161" fill="#01665e" font-family="Verdana" font-size="12">1,1</text>
	<text x="468" y="271" fill="#01665e" font-family="Verdana" font-size="12">1,N</text>
</g>

<!-- Association IMPACTE -->
<g>
	<line x1="547" y1="254" x2="696" y2="254" stroke="#bf812d" stroke-width="2"/>
	<line x1="696" y1="406" x2="696" y2="254" stroke="#bf812d" stroke-width="2"/>
	<g>
		<path d="M747 195 a14 14 90 0 1 14 14 V220 h-130 V209 a14 14 90 0 1 14 -14" fill="#dfc27d" stroke="#dfc27d" stroke-width="0"/>
		<path d="M761 220 v79 a14 14 90 0 1 -14 14 H645 a14 14 90 0 1 -14 -14 V220 H130" fill="#f6e8c3" stroke="#f6e8c3" stroke-width="0"/>
		<rect x="631" y="195" width="130" height="118" fill="none" rx="14" stroke="#bf812d" stroke-width="2"/>
		<line x1="631" y1="220" x2="761" y2="220" stroke="#bf812d" stroke-width="1"/>
		<text x="669" y="212.75" fill="#000000" font-family="Verdana" font-size="12">IMPACTE</text>
		<text x="638" y="237.8" fill="#000000" font-family="Verdana" font-size="12">id_bien</text>
		<text x="638" y="254.8" fill="#000000" font-family="Verdana" font-size="12">id_sinistre</text>
		<text x="638" y="271.8" fill="#000000" font-family="Verdana" font-size="12">degat_estime</text>
		<text x="638" y="288.8" fill="#000000" font-family="Verdana" font-size="12">description_degats</text>
		<text x="638" y="305.8" fill="#000000" font-family="Verdana" font-size="12">partie_impactee</text>
	</g>
	<text x="604" y="271" fill="#01665e" font-family="Verdana" font-size="12">1,N</text>
	<text x="701" y="330" fill="#01665e" font-family="Verdana" font-size="12">1,1</text>
</g>

<!-- Association APPARTIENT -->
<g>
	<line x1="547" y1="254" x2="547" y2="406" stroke="#bf812d" stroke-width="2"/>
	<line x1="547" y1="507" x2="547" y2="406" stroke="#bf812d" stroke-width="2"/>
	<g>
		<path d="M579 381 a14 14 90 0 1 14 14 V406 h-92 V395 a14 14 90 0 1 14 -14" fill="#dfc27d" stroke="#dfc27d" stroke-width="0"/>
		<path d="M593 406 v11 a14 14 90 0 1 -14 14 H515 a14 14 90 0 1 -14 -14 V406 H92" fill="#f6e8c3" stroke="#f6e8c3" stroke-width="0"/>
		<rect x="501" y="381" width="92" height="50" fill="none" rx="14" stroke="#bf812d" stroke-width="2"/>
		<line x1="501" y1="406" x2="593" y2="406" stroke="#bf812d" stroke-width="1"/>
		<text x="509" y="398.75" fill="#000000" font-family="Verdana" font-size="12">APPARTIENT</text>
	</g>
	<text x="552" y="356" fill="#01665e" font-family="Verdana" font-size="12">1,N</text>
	<text x="552" y="448" fill="#01665e" font-family="Verdana" font-size="12">1,1</text>
</g>

<!-- Entity ASSUREUR -->
<g>
	<g>
		<rect x="132" y="9" width="100" height="25" fill="#80cdc1" stroke="none" stroke-width="0" opacity="1"/>
		<rect x="132" y="34" width="100" height="127" fill="#c7eae5" stroke="none" stroke-width="0" opacity="1"/>
		<rect x="132" y="9" width="100" height="152" fill="none" stroke="#35978f" stroke-width="2" opacity="1"/>
		<line x1="132" y1="34" x2="232" y2="34" stroke="#35978f" stroke-width="1"/>
	</g>
	<text x="149" y="26.75" fill="#000000" font-family="Verdana" font-size="12">ASSUREUR</text>
	<text x="137" y="51.8" fill="#000000" font-family="Verdana" font-size="12">id_assureur</text>
	<line x1="137" y1="54" x2="209" y2="54" stroke="#000000" stroke-width="1"/>
	<text x="137" y="68.8" fill="#000000" font-family="Verdana" font-size="12">nom</text>
	<text x="137" y="85.8" fill="#000000" font-family="Verdana" font-size="12">prenom</text>
	<text x="137" y="102.8" fill="#000000" font-family="Verdana" font-size="12">email</text>
	<text x="137" y="119.8" fill="#000000" font-family="Verdana" font-size="12">telephone</text>
	<text x="137" y="136.8" fill="#000000" font-family="Verdana" font-size="12">mot_de_passe</text>
	<text x="137" y="153.8" fill="#000000" font-family="Verdana" font-size="12">societe</text>
</g>

<!-- Entity PIECE -->
<g>
	<g>
		<rect x="385" y="26" width="78" height="25" fill="#80cdc1" stroke="none" stroke-width="0" opacity="1"/>
		<rect x="385" y="51" width="78" height="93" fill="#c7eae5" stroke="none" stroke-width="0" opacity="1"/>
		<rect x="385" y="26" width="78" height="118" fill="none" stroke="#35978f" stroke-width="2" opacity="1"/>
		<line x1="385" y1="51" x2="463" y2="51" stroke="#35978f" stroke-width="1"/>
	</g>
	<text x="406" y="43.75" fill="#000000" font-family="Verdana" font-size="12">PIECE</text>
	<text x="390" y="68.8" fill="#000000" font-family="Verdana" font-size="12">id_piece</text>
	<line x1="390" y1="71" x2="441" y2="71" stroke="#000000" stroke-width="1"/>
	<text x="390" y="85.8" fill="#000000" font-family="Verdana" font-size="12">nom_piece</text>
	<text x="390" y="102.8" fill="#000000" font-family="Verdana" font-size="12">type_piece</text>
	<text x="390" y="119.8" fill="#000000" font-family="Verdana" font-size="12">surface</text>
	<text x="390" y="136.8" fill="#000000" font-family="Verdana" font-size="12">etage</text>
</g>

<!-- Entity ASSURE -->
<g>
	<g>
		<rect x="9" y="186" width="104" height="25" fill="#80cdc1" stroke="none" stroke-width="0" opacity="1"/>
		<rect x="9" y="211" width="104" height="111" fill="#c7eae5" stroke="none" stroke-width="0" opacity="1"/>
		<rect x="9" y="186" width="104" height="136" fill="none" stroke="#35978f" stroke-width="2" opacity="1"/>
		<line x1="9" y1="211" x2="113" y2="211" stroke="#35978f" stroke-width="1"/>
	</g>
	<text x="36" y="203.75" fill="#000000" font-family="Verdana" font-size="12">ASSURE</text>
	<text x="14" y="228.8" fill="#000000" font-family="Verdana" font-size="12">id_assure</text>
	<line x1="14" y1="231" x2="73" y2="231" stroke="#000000" stroke-width="1"/>
	<text x="14" y="245.8" fill="#000000" font-family="Verdana" font-size="12">nom</text>
	<text x="14" y="262.8" fill="#000000" font-family="Verdana" font-size="12">prenom</text>
	<text x="14" y="279.8" fill="#000000" font-family="Verdana" font-size="12">date_naissance</text>
	<text x="14" y="296.8" fill="#000000" font-family="Verdana" font-size="12">email</text>
	<text x="14" y="313.8" fill="#000000" font-family="Verdana" font-size="12">telephone</text>
</g>

<!-- Entity LOGEMENT -->
<g>
	<g>
		<rect x="251" y="195" width="102" height="25" fill="#80cdc1" stroke="none" stroke-width="0" opacity="1"/>
		<rect x="251" y="220" width="102" height="93" fill="#c7eae5" stroke="none" stroke-width="0" opacity="1"/>
		<rect x="251" y="195" width="102" height="118" fill="none" stroke="#35978f" stroke-width="2" opacity="1"/>
		<line x1="251" y1="220" x2="353" y2="220" stroke="#35978f" stroke-width="1"/>
	</g>
	<text x="268" y="212.75" fill="#000000" font-family="Verdana" font-size="12">LOGEMENT</text>
	<text x="256" y="237.8" fill="#000000" font-family="Verdana" font-size="12">id_logement</text>
	<line x1="256" y1="240" x2="332" y2="240" stroke="#000000" stroke-width="1"/>
	<text x="256" y="254.8" fill="#000000" font-family="Verdana" font-size="12">adresse</text>
	<text x="256" y="271.8" fill="#000000" font-family="Verdana" font-size="12">type_logement</text>
	<text x="256" y="288.8" fill="#000000" font-family="Verdana" font-size="12">surface</text>
	<text x="256" y="305.8" fill="#000000" font-family="Verdana" font-size="12">description</text>
</g>

<!-- Entity BIEN -->
<g>
	<g>
		<rect x="495" y="169" width="104" height="25" fill="#80cdc1" stroke="none" stroke-width="0" opacity="1"/>
		<rect x="495" y="194" width="104" height="145" fill="#c7eae5" stroke="none" stroke-width="0" opacity="1"/>
		<rect x="495" y="169" width="104" height="170" fill="none" stroke="#35978f" stroke-width="2" opacity="1"/>
		<line x1="495" y1="194" x2="599" y2="194" stroke="#35978f" stroke-width="1"/>
	</g>
	<text x="532" y="186.75" fill="#000000" font-family="Verdana" font-size="12">BIEN</text>
	<text x="500" y="211.8" fill="#000000" font-family="Verdana" font-size="12">id_bien</text>
	<line x1="500" y1="214" x2="545" y2="214" stroke="#000000" stroke-width="1"/>
	<text x="500" y="228.8" fill="#000000" font-family="Verdana" font-size="12">nom_bien</text>
	<text x="500" y="245.8" fill="#000000" font-family="Verdana" font-size="12">description</text>
	<text x="500" y="262.8" fill="#000000" font-family="Verdana" font-size="12">categorie</text>
	<text x="500" y="279.8" fill="#000000" font-family="Verdana" font-size="12">date_achat</text>
	<text x="500" y="296.8" fill="#000000" font-family="Verdana" font-size="12">prix_achat</text>
	<text x="500" y="313.8" fill="#000000" font-family="Verdana" font-size="12">etat</text>
	<text x="500" y="330.8" fill="#000000" font-family="Verdana" font-size="12">valeur_actuelle</text>
</g>

<!-- Entity SINISTRE -->
<g>
	<g>
		<rect x="641" y="338" width="110" height="25" fill="#80cdc1" stroke="none" stroke-width="0" opacity="1"/>
		<rect x="641" y="363" width="110" height="111" fill="#c7eae5" stroke="none" stroke-width="0" opacity="1"/>
		<rect x="641" y="338" width="110" height="136" fill="none" stroke="#35978f" stroke-width="2" opacity="1"/>
		<line x1="641" y1="363" x2="751" y2="363" stroke="#35978f" stroke-width="1"/>
	</g>
	<text x="666" y="355.75" fill="#000000" font-family="Verdana" font-size="12">SINISTRE</text>
	<text x="646" y="380.8" fill="#000000" font-family="Verdana" font-size="12">id_sinistre</text>
	<line x1="646" y1="383" x2="709" y2="383" stroke="#000000" stroke-width="1"/>
	<text x="646" y="397.8" fill="#000000" font-family="Verdana" font-size="12">date_sinistre</text>
	<text x="646" y="414.8" fill="#000000" font-family="Verdana" font-size="12">type_sinistre</text>
	<text x="646" y="431.8" fill="#000000" font-family="Verdana" font-size="12">description</text>
	<text x="646" y="448.8" fill="#000000" font-family="Verdana" font-size="12">montant_estime</text>
	<text x="646" y="465.8" fill="#000000" font-family="Verdana" font-size="12">numero_sinistre</text>
</g>

<!-- Entity JUSTIFICATIF -->
<g>
	<g>
		<rect x="495" y="456" width="104" height="25" fill="#80cdc1" stroke="none" stroke-width="0" opacity="1"/>
		<rect x="495" y="481" width="104" height="77" fill="#c7eae5" stroke="none" stroke-width="0" opacity="1"/>
		<rect x="495" y="456" width="104" height="102" fill="none" stroke="#35978f" stroke-width="2" opacity="1"/>
		<line x1="495" y1="481" x2="599" y2="481" stroke="#35978f" stroke-width="1"/>
	</g>
	<text x="505" y="473.75" fill="#000000" font-family="Verdana" font-size="12">JUSTIFICATIF</text>
	<text x="500" y="498.8" fill="#000000" font-family="Verdana" font-size="12">id_justificatif</text>
	<line x1="500" y1="501" x2="579" y2="501" stroke="#000000" stroke-width="1"/>
	<text x="500" y="515.8" fill="#000000" font-family="Verdana" font-size="12">type_justificatif</text>
	<text x="500" y="532.8" fill="#000000" font-family="Verdana" font-size="12">chemin_fichier</text>
	<text x="500" y="549.8" fill="#000000" font-family="Verdana" font-size="12">date_ajout</text>
</g>
</svg>